<svg xmlns="http://www.w3.org/2000/svg" viewBox="0 0 64 64" width="64" height="64">
  <defs>
    <linearGradient id="rocketGradient" x1="0%" y1="0%" x2="100%" y2="100%">
      <stop offset="0%" style="stop-color:#FF6B4A"/>
      <stop offset="100%" style="stop-color:#FF9F43"/>
    </linearGradient>
  </defs>
  <circle cx="32" cy="32" r="30" fill="url(#rocketGradient)"/>
  <path d="M32 12c-11 0-20 9-20 20s9 20 20 20 20-9 20-20-9-20-20-20zm0 36c-8.8 0-16-7.2-16-16s7.2-16 16-16 16 7.2 16 16-7.2 16-16 16z" fill="#fff" opacity="0.3"/>
  <path d="M32 18l-4 8h3v12l5-10h-3z" fill="#fff"/>
  <circle cx="32" cy="32" r="6" fill="none" stroke="#fff" stroke-width="2"/>
</svg>
